HIERARCHY
ROOT Torso
{
	OFFSET 0.000000 0.000000 0.000000
	CHANNELS 6 Xposition Yposition Zposition Zrotation Yrotation Xrotation
	JOINT LHip
	{
		OFFSET 0.000000 -0.010000 -0.060000
		CHANNELS 6 Xposition Yposition Zposition Zrotation Yrotation Xrotation
		JOINT LeftThigh
		{
			OFFSET 0.055000 0.000000 -0.055000
			CHANNELS 6 Xposition Yposition Zposition Zrotation Yrotation Xrotation
			JOINT LeftLeg
			{
				OFFSET 0.000000 0.015000 -0.120000
				CHANNELS 6 Xposition Yposition Zposition Zrotation Yrotation Xrotation
				JOINT LeftFoot
				{
					OFFSET 0.000000 -0.010000 -0.100000
					CHANNELS 6 Xposition Yposition Zposition Zrotation Yrotation Xrotation
					End Site
					{
						OFFSET 0.000000 0.090000 -0.035000
					}
				}
			}
		}
	}
	JOINT RHip
	{
		OFFSET 0.000000 -0.010000 -0.060000
		CHANNELS 6 Xposition Yposition Zposition Zrotation Yrotation Xrotation
		JOINT RightThigh
		{
			OFFSET -0.055000 0.000000 -0.055000
			CHANNELS 6 Xposition Yposition Zposition Zrotation Yrotation Xrotation
			JOINT RightLeg
			{
				OFFSET 0.000000 0.015000 -0.120000
				CHANNELS 6 Xposition Yposition Zposition Zrotation Yrotation Xrotation
				JOINT RightFoot
				{
					OFFSET 0.000000 -0.010000 -0.100000
					CHANNELS 6 Xposition Yposition Zposition Zrotation Yrotation Xrotation
					End Site
					{
						OFFSET 0.000000 0.090000 -0.035000
					}
				}
			}
		}
	}
	JOINT Neck
	{
		OFFSET 0.000000 -0.000000 0.040000
		CHANNELS 6 Xposition Yposition Zposition Zrotation Yrotation Xrotation
		JOINT Head
		{
			OFFSET 0.000000 -0.000000 0.100000
			CHANNELS 6 Xposition Yposition Zposition Zrotation Yrotation Xrotation
			End Site
			{
				OFFSET 0.000000 -0.000000 0.070000
			}
		}
	}
	JOINT LeftUpperarm
	{
		OFFSET 0.098000 -0.000000 0.075000
		CHANNELS 6 Xposition Yposition Zposition Zrotation Yrotation Xrotation
		JOINT LeftLowerarm
		{
			OFFSET 0.000000 0.090000 0.009000
			CHANNELS 6 Xposition Yposition Zposition Zrotation Yrotation Xrotation
			End Site
			{
				OFFSET 0.000000 0.105000 0.000000
			}
		}
	}
	JOINT RightUpperarm
	{
		OFFSET -0.098000 -0.000000 0.075000
		CHANNELS 6 Xposition Yposition Zposition Zrotation Yrotation Xrotation
		JOINT RightLowerarm
		{
			OFFSET 0.000000 0.090000 0.009000
			CHANNELS 6 Xposition Yposition Zposition Zrotation Yrotation Xrotation
			End Site
			{
				OFFSET 0.000000 0.105000 0.000000
			}
		}
	}
}
MOTION
Frames: 4
Frame Time: 0.041667
0.000000 0.000000 0.000000 -179.371477 2.608355 -7.266136 0.000000 -0.010000 -0.060000 -55.091360 21.957168 25.204127 0.055000 0.000000 -0.055000 -116.133351 -7.605533 19.387663 0.000000 0.015000 -0.120000 1.046881 0.464583 -16.559618 -0.000000 -0.010000 -0.100000 -10.228731 156.590734 -35.312047 -0.000000 -0.010000 -0.060000 56.326275 -21.975881 26.450763 -0.055000 0.000000 -0.055000 113.827527 14.583169 28.878057 0.000000 0.015000 -0.120000 -0.258451 -1.519157 -34.016938 0.000000 -0.010000 -0.100000 17.018260 -155.510949 -35.155667 0.000000 0.000000 0.040000 -4.189037 -0.668131 27.950092 -0.000000 -0.000000 0.100000 -3.385971 -1.228039 15.669320 0.098000 -0.000000 0.075000 -48.258773 -169.206230 49.723842 -0.000000 0.090000 0.009000 18.145248 -8.301029 43.234633 -0.098000 -0.000000 0.075000 11.038322 -179.819183 53.812731 -0.000000 0.090000 0.009000 -9.841514 4.043070 36.797569 
0.000000 0.000000 0.000000 -179.396968 2.625033 -7.275658 0.000000 -0.010000 -0.060000 -55.098723 21.928768 25.186454 0.055000 0.000000 -0.055000 -116.132286 -7.629106 19.118663 -0.000000 0.015000 -0.120000 1.079917 0.448628 -16.361385 -0.000000 -0.010000 -0.100000 -10.323441 156.581267 -35.457838 -0.000000 -0.010000 -0.060000 56.224065 -22.109927 26.468189 -0.055000 0.000000 -0.055000 113.881636 14.509747 29.859524 -0.000000 0.015000 -0.120000 -0.168760 -1.512704 -35.383399 0.000000 -0.010000 -0.100000 16.862856 -155.474339 -35.124340 0.000000 0.000000 0.040000 -4.074121 -0.443932 27.984436 0.000000 -0.000000 0.100000 -3.380298 -1.471535 15.623091 0.098000 -0.000000 0.075000 -47.882041 -169.253440 50.342118 0.000000 0.090000 0.009000 17.998993 -8.198320 42.958533 -0.098000 -0.000000 0.075000 10.849243 -179.670148 53.502142 0.000000 0.090000 0.009000 -9.699593 3.991553 36.690526 
0.000000 0.000000 0.000000 -179.417895 2.615550 -7.258492 0.000000 -0.010000 -0.060000 -55.102203 21.901748 25.168530 0.055000 0.000000 -0.055000 -116.090266 -7.692425 18.878240 -0.000000 0.015000 -0.120000 1.111467 0.433772 -16.156486 -0.000000 -0.010000 -0.100000 -10.438952 156.569369 -35.705903 -0.000000 -0.010000 -0.060000 56.114929 -22.251933 26.487050 -0.055000 0.000000 -0.055000 113.824215 14.463554 30.885835 -0.000000 0.015000 -0.120000 -0.072334 -1.509911 -36.638730 0.000000 -0.010000 -0.100000 17.036239 -155.438522 -35.580986 -0.000000 -0.000000 0.040000 -3.952266 -0.180424 27.990481 0.000000 0.000000 0.100000 -3.377564 -1.765489 15.563824 0.098000 -0.000000 0.075000 -47.431894 -169.343639 51.055804 0.000000 0.090000 0.009000 17.812064 -8.067588 42.613646 -0.098000 -0.000000 0.075000 10.636551 -179.460789 53.254647 -0.000000 0.090000 0.009000 -9.495741 3.917743 36.500039 
0.000000 0.000000 0.000000 -179.444110 2.626544 -7.281561 -0.000000 -0.010000 -0.060000 -55.113316 21.873698 25.148176 0.055000 0.000000 -0.055000 -116.062618 -7.725734 18.583789 -0.000000 0.015000 -0.120000 1.145241 0.416961 -15.952426 -0.000000 -0.010000 -0.100000 -10.519469 156.562812 -35.817843 0.000000 -0.010000 -0.060000 56.018859 -22.379955 26.501107 -0.055000 0.000000 -0.055000 113.745101 14.452262 31.807320 0.000000 0.015000 -0.120000 0.016055 -1.508296 -37.725006 0.000000 -0.010000 -0.100000 17.160287 -155.412198 -35.558047 0.000000 0.000000 0.040000 -3.832415 0.020573 28.036699 -0.000000 -0.000000 0.100000 -3.376243 -2.017257 15.517172 0.098000 -0.000000 0.075000 -46.962786 -169.445382 51.748273 -0.000000 0.090000 0.009000 17.611605 -7.923036 42.237388 -0.098000 -0.000000 0.075000 10.329211 -179.249094 52.982952 -0.000000 0.090000 0.009000 -9.284521 3.841213 36.294898 
